# xmcd
#
# Track frame offsets:
# 150
# 14595
# 26842
# 40622
# 54595
# 68597
# 82302
# 96115
# 110310
# 124515
# 138325
# 151472
# 164777
# 177922
# 191915
# 205822
# 219667
# 233270
# 248320
# 263150
# 278057
# 291980
# 306542
#
# Disc length: 4279 seconds
#
#
# Revision: 0
# Processed by: cddbd v1.5.2PL0 Copyright (c) Steve Scherf et al.
# Submitted via: FreeRIP 2.941 
#
DISCID=4d10b517
DTITLE=Jaybird Coleman and The birmongham Jug Band - Complete Recorded Works in Chronologic Order
DYEAR=1927
DGENRE=Jug Band
TTITLE0=My Jelly Blues (Berthra Ross, Vcl)
TTITLE1=Mill Log Blues
TTITLE2=Boll Weevil
TTITLE3=Ah'm Sick And Tried Of Tellin' You
TTITLE4=Man Trouble Blues
TTITLE5=Trunk Busted - Suitcase Full of Holes
TTITLE6=I'm Gonna cross The River Of Jordan -Some O' These Days
TTITLE7=You Heard Me Whistle
TTITLE8=No More Good Water - 'Cause The Pond Is Dry
TTITLE9=Mistreatin' Mama
TTITLE10=Save Your Money - Let These Woman Go
TTITLE11=Ain't Gonna Lay My 'Ligion Down (Frank Palmes)
TTITLE12=Trouble 'Bout My Soul (Frank Palems)
TTITLE13=Coffee Grinder Blues
TTITLE14=Man Trouble Blues
TTITLE15=German Blues
TTITLE16=Cane Brake Blues
TTITLE17=The Wild Cat Squawl
TTITLE18=Bill Wilson
TTITLE19=Birmingham Blues
TTITLE20=Gettin' Ready For Trial
TTITLE21=Giving It Away
TTITLE22=Kickin' Mule Blues
EXTD=
EXTT0=
EXTT1=
EXTT2=
EXTT3=
EXTT4=
EXTT5=
EXTT6=
EXTT7=
EXTT8=
EXTT9=
EXTT10=
EXTT11=
EXTT12=
EXTT13=
EXTT14=
EXTT15=
EXTT16=
EXTT17=
EXTT18=
EXTT19=
EXTT20=
EXTT21=
EXTT22=
PLAYORDER=
